Coordinates
version=1
nRows=38
nColumns=12
inDegrees=yes

Units are S.I. units (second, meters, Newtons, ...)
Angles are in degrees

endheader
time	SC_y	SC_z	SC_x	AC_y	AC_z	AC_x	GH_y	GH_z	GH_yy	EL_x	PS_y
       0.0              -15.72          14.38          77.11          50.27          1.089          18.43         -5.226         -2.133          35.98          113.4          84.39
   0.04847              -15.73          14.38          77.11          50.27          1.086          18.43         -5.234         -2.134           36.0          113.4          84.39
   0.09694              -15.74          14.39           77.1          50.28          1.083          18.42         -5.243         -2.135          36.02          113.4           84.4
    0.1454              -15.74          14.39           77.1          50.28           1.08          18.42         -5.253         -2.135          36.04          113.4           84.4
    0.1939              -15.75          14.39          77.09          50.28          1.077          18.42         -5.263         -2.136          36.07          113.4           84.4
    0.2424              -15.76          14.39          77.09          50.29          1.074          18.42         -5.273         -2.137          36.09          113.4          84.41
    0.2908              -15.77           14.4          77.08          50.29          1.071          18.42         -5.285         -2.137          36.12          113.4          84.41
    0.3393              -15.78           14.4          77.08          50.29          1.067          18.42         -5.297         -2.138          36.15          113.4          84.42
    0.3878              -15.79           14.4          77.07           50.3          1.063          18.42          -5.31         -2.139          36.18          113.4          84.42
    0.4362               -15.8          14.41          77.07           50.3          1.058          18.42         -5.324          -2.14          36.21          113.4          84.43
    0.4847              -15.81          14.41          77.06          50.31          1.054          18.42         -5.339         -2.141          36.25          113.4          84.43
    0.5332              -15.82          14.41          77.05          50.31          1.049          18.42         -5.356         -2.142          36.29          113.4          84.44
    0.5817              -15.83          14.42          77.04          50.32          1.043          18.42         -5.373         -2.143          36.33          113.4          84.45
    0.6301              -15.85          14.42          77.04          50.32          1.038          18.42         -5.392         -2.144          36.38          113.4          84.46
    0.6786              -15.86          14.43          77.03          50.33          1.031          18.42         -5.413         -2.146          36.43          113.4          84.46
    0.7271              -15.88          14.43          77.02          50.34          1.024          18.42         -5.435         -2.147          36.48          113.4          84.47
    0.7756               -15.9          14.44          77.01          50.34          1.017          18.42         -5.459         -2.149          36.54          113.4          84.48
     0.824              -15.92          14.45          76.99          50.35          1.009          18.42         -5.485          -2.15           36.6          113.4          84.49
    0.8725              -15.94          14.45          76.98          50.36            1.0          18.42         -5.514         -2.152          36.67          113.4          84.51
     0.921              -15.96          14.46          76.97          50.37         0.9905          18.42         -5.546         -2.154          36.74          113.5          84.52
    0.9694              -15.99          14.47          76.95          50.38         0.9799          18.42          -5.58         -2.157          36.83          113.5          84.53
     1.018              -16.02          14.48          76.93           50.4         0.9683          18.41         -5.618         -2.159          36.92          113.5          84.55
     1.066              -16.05          14.49          76.91          50.41         0.9554          18.41          -5.66         -2.162          37.02          113.5          84.57
     1.115              -16.08           14.5          76.89          50.42         0.9411          18.41         -5.707         -2.165          37.13          113.5          84.58
     1.163              -16.12          14.52          76.87          50.44         0.9252          18.41         -5.758         -2.168          37.25          113.5          84.61
     1.212              -16.16          14.53          76.84          50.46         0.9075          18.41         -5.816         -2.172          37.39          113.5          84.63
      1.26              -16.21          14.55          76.81          50.48         0.8877          18.41         -5.881         -2.176          37.55          113.5          84.66
     1.309              -16.27          14.57          76.78           50.5         0.8653          18.41         -5.953         -2.181          37.72          113.6          84.68
     1.357              -16.33          14.59          76.74          50.53         0.8401           18.4         -6.036         -2.186          37.92          113.6          84.72
     1.406               -16.4          14.61           76.7          50.56         0.8115           18.4         -6.129         -2.193          38.14          113.6          84.76
     1.454              -16.48          14.64          76.65          50.59         0.7788           18.4         -6.235           -2.2           38.4          113.6           84.8
     1.503              -16.57          14.67           76.6          50.63         0.7413          18.39         -6.357         -2.208          38.69          113.7          84.85
     1.551              -16.68          14.71          76.53          50.68          0.698          18.39         -6.499         -2.217          39.03          113.7          84.91
       1.6               -16.8          14.75          76.46          50.73         0.6477          18.39         -6.662         -2.228          39.42          113.7          84.97
     1.648              -16.94           14.8          76.37          50.79         0.5888          18.38         -6.854          -2.24          39.88          113.8          85.05
     1.697              -17.11          14.85          76.27          50.86         0.5194          18.38          -7.08         -2.255          40.43          113.8          85.14
     1.745              -17.31          14.92          76.15          50.95         0.4369          18.37         -7.349         -2.273          41.07          113.9          85.25
     1.793              -17.55           15.0           76.0          51.05         0.3381          18.36         -7.671         -2.294          41.84          114.0          85.38
